<svg xmlns="http://www.w3.org/2000/svg" version="1.1" xmlns:xlink="http://www.w3.org/1999/xlink" xmlns:svgjs="http://svgjs.com/svgjs" width="1920" height="1080" preserveAspectRatio="none" viewBox="0 0 1920 1080"><g mask="url(&quot;#SvgjsMask1094&quot;)" fill="none"><rect width="1920" height="1080" x="0" y="0" fill="rgba(95, 115, 135, 1)"></rect><path d="M0,610.153C167.85,626.181,325.611,816.233,477.472,742.96C624.044,672.238,621.879,457.043,649.66,296.69C672.141,166.927,628.989,42.11,621.674,-89.383C613.466,-236.941,698.635,-409.859,604.039,-523.403C509.733,-636.599,318.637,-564.2,181.413,-617.834C24.427,-679.192,-84.89,-880.564,-251.918,-857.954C-415.246,-835.845,-503.974,-652.354,-592.171,-513.119C-670.569,-389.353,-697.171,-247.823,-728.986,-104.812C-763.516,50.405,-845.583,211.539,-786.196,359.044C-726.427,507.498,-574.703,608.353,-422.256,657.044C-284.564,701.023,-143.89,596.413,0,610.153" fill="#4d5d6d"></path><path d="M1920 1790.99C2070.354 1824.275 2236.702 1856.6970000000001 2372.575 1784.221 2510.82 1710.479 2564.2039999999997 1546.108 2638.102 1407.946 2716.946 1260.538 2860.904 1112.496 2818.323 950.841 2775.198 787.121 2555.82 752.245 2434.326 634.3340000000001 2327.158 530.327 2293.175 338.93899999999996 2148.734 301.00199999999995 2004.019 262.99300000000005 1876.281 400.813 1735.226 450.717 1603.826 497.20500000000004 1458.538 499.48 1347.9470000000001 584.313 1222.728 680.367 1079.4740000000002 800.591 1073.528 958.296 1067.554 1116.742 1221.478 1229.415 1318.906 1354.51 1395.1219999999998 1452.37 1479.7930000000001 1535.9180000000001 1580.161 1608.799 1686.315 1685.882 1791.912 1762.634 1920 1790.99" fill="#74899d"></path></g><defs><mask id="SvgjsMask1094"><rect width="1920" height="1080" fill="#ffffff"></rect></mask></defs></svg>